<svg width="132" height="30" viewBox="0 0 132 30" fill="none" xmlns="http://www.w3.org/2000/svg">
<path fill-rule="evenodd" clip-rule="evenodd" d="M28.8829 0.0335728L28.8917 0.0312347C29.5407 -0.143843 30.1463 0.45018 29.9686 1.1086L29.9665 1.11645L29.9665 1.11653L29.9665 1.11659C29.9649 1.12239 29.9634 1.12819 29.9617 1.13397L29.9599 1.14053L21.1959 29.3813C21.0819 29.7488 20.7422 29.9994 20.3575 30.0001H20.3561C19.9719 30.0001 19.6321 29.7507 19.517 29.3841L16.0979 18.4947L10.5797 20.5515C10.2577 20.6716 9.89449 20.5931 9.65068 20.3493C9.40729 20.1059 9.32824 19.7429 9.44848 19.4203L11.5054 13.902L0.615997 10.4831C0.248849 10.3678 -0.000643285 10.0274 0 9.6426C0.000645777 9.25782 0.25131 8.91821 0.618751 8.80413L28.8594 0.0400238L28.8658 0.038266C28.8715 0.0365682 28.8772 0.0350736 28.8829 0.0335815L28.8829 0.0335728ZM24.5867 3.20754L3.83063 9.64893L12.4839 12.3659L24.5867 3.20754ZM13.3877 13.8875L11.7686 18.2313L16.1123 16.6122L24.5871 5.41284L13.3877 13.8875ZM17.634 17.5159L20.351 26.1693L26.7923 5.41319L17.634 17.5159ZM5.74366 18.0385C6.08714 17.6951 6.64395 17.6951 6.98731 18.0385C7.33073 18.3819 7.33073 18.9387 6.98731 19.2822L1.711 24.5585C1.36753 24.9019 0.81071 24.9019 0.46735 24.5585C0.123932 24.215 0.123932 23.6582 0.46735 23.3148L5.74366 18.0385ZM11.9614 23.0125C11.618 22.669 11.0612 22.669 10.7178 23.0125L5.44144 28.2888C5.09802 28.6322 5.09802 29.189 5.44144 29.5325C5.7848 29.8759 6.34168 29.8759 6.6851 29.5325L11.9614 24.2562C12.3048 23.9128 12.3048 23.356 11.9614 23.0125ZM6.47195 22.2843C6.81542 21.9409 7.37224 21.9409 7.7156 22.2843C8.05902 22.6277 8.05902 23.1845 7.7156 23.528L1.50126 29.7423C1.15784 30.0857 0.600969 30.0857 0.25761 29.7423C-0.0858084 29.3988 -0.0858084 28.8421 0.25761 28.4987L6.47195 22.2843Z" fill="#1A75E8"/>
<path d="M47.8594 16.3516H43.3594V21H41.0156V9.625H48.4219V11.5234H43.3594V14.4609H47.8594V16.3516Z" fill="#0F1138"/>
<path d="M52.0156 21H49.75V12.5469H52.0156V21ZM49.6172 10.3594C49.6172 10.0208 49.7292 9.74219 49.9531 9.52344C50.1823 9.30469 50.4922 9.19531 50.8828 9.19531C51.2682 9.19531 51.5755 9.30469 51.8047 9.52344C52.0339 9.74219 52.1484 10.0208 52.1484 10.3594C52.1484 10.7031 52.0312 10.9844 51.7969 11.2031C51.5677 11.4219 51.263 11.5312 50.8828 11.5312C50.5026 11.5312 50.1953 11.4219 49.9609 11.2031C49.7318 10.9844 49.6172 10.7031 49.6172 10.3594Z" fill="#0F1138"/>
<path d="M55.9609 12.5469L56.0312 13.5234C56.6354 12.7682 57.4453 12.3906 58.4609 12.3906C59.3568 12.3906 60.0234 12.6536 60.4609 13.1797C60.8984 13.7057 61.1224 14.4922 61.1328 15.5391V21H58.875V15.5938C58.875 15.1146 58.7708 14.7682 58.5625 14.5547C58.3542 14.3359 58.0078 14.2266 57.5234 14.2266C56.888 14.2266 56.4115 14.4974 56.0938 15.0391V21H53.8359V12.5469H55.9609Z" fill="#0F1138"/>
<path d="M62.5 16.7109C62.5 15.3932 62.7943 14.3438 63.3828 13.5625C63.9766 12.7812 64.7865 12.3906 65.8125 12.3906C66.6354 12.3906 67.3151 12.6979 67.8516 13.3125V9H70.1172V21H68.0781L67.9688 20.1016C67.4062 20.8047 66.6823 21.1562 65.7969 21.1562C64.8021 21.1562 64.0026 20.7656 63.3984 19.9844C62.7995 19.1979 62.5 18.1068 62.5 16.7109ZM64.7578 16.875C64.7578 17.6667 64.8958 18.2734 65.1719 18.6953C65.4479 19.1172 65.849 19.3281 66.375 19.3281C67.0729 19.3281 67.5651 19.0339 67.8516 18.4453V15.1094C67.5703 14.5208 67.0833 14.2266 66.3906 14.2266C65.3021 14.2266 64.7578 15.1094 64.7578 16.875Z" fill="#0F1138"/>
<path d="M75.9375 14.75L78.3047 9.625H80.8672L77.1328 16.875V21H74.75V16.875L71.0156 9.625H73.5859L75.9375 14.75Z" fill="#0F1138"/>
<path d="M80.8906 16.6953C80.8906 15.8568 81.0521 15.1094 81.375 14.4531C81.6979 13.7969 82.1615 13.2891 82.7656 12.9297C83.375 12.5703 84.0807 12.3906 84.8828 12.3906C86.0234 12.3906 86.9531 12.7396 87.6719 13.4375C88.3958 14.1354 88.7995 15.0833 88.8828 16.2812L88.8984 16.8594C88.8984 18.1562 88.5365 19.1979 87.8125 19.9844C87.0885 20.7656 86.1172 21.1562 84.8984 21.1562C83.6797 21.1562 82.7057 20.7656 81.9766 19.9844C81.2526 19.2031 80.8906 18.1406 80.8906 16.7969V16.6953ZM83.1484 16.8594C83.1484 17.6615 83.2995 18.276 83.6016 18.7031C83.9036 19.125 84.3359 19.3359 84.8984 19.3359C85.4453 19.3359 85.8724 19.1276 86.1797 18.7109C86.487 18.2891 86.6406 17.6172 86.6406 16.6953C86.6406 15.9089 86.487 15.2995 86.1797 14.8672C85.8724 14.4349 85.4401 14.2188 84.8828 14.2188C84.3307 14.2188 83.9036 14.4349 83.6016 14.8672C83.2995 15.2943 83.1484 15.9583 83.1484 16.8594Z" fill="#0F1138"/>
<path d="M95.3516 20.1406C94.7943 20.8177 94.0234 21.1562 93.0391 21.1562C92.1328 21.1562 91.4401 20.8958 90.9609 20.375C90.487 19.8542 90.2448 19.0911 90.2344 18.0859V12.5469H92.4922V18.0078C92.4922 18.888 92.8932 19.3281 93.6953 19.3281C94.4609 19.3281 94.987 19.0625 95.2734 18.5312V12.5469H97.5391V21H95.4141L95.3516 20.1406Z" fill="#0F1138"/>
<path d="M103.992 14.6641C103.685 14.6224 103.414 14.6016 103.18 14.6016C102.326 14.6016 101.766 14.8906 101.5 15.4688V21H99.2422V12.5469H101.375L101.438 13.5547C101.891 12.7786 102.518 12.3906 103.32 12.3906C103.57 12.3906 103.805 12.4245 104.023 12.4922L103.992 14.6641Z" fill="#0F1138"/>
<path d="M47.8594 16.3516H43.3594V21H41.0156V9.625H48.4219V11.5234H43.3594V14.4609H47.8594V16.3516Z" fill="#0F1138"/>
<path d="M52.0156 21H49.75V12.5469H52.0156V21ZM49.6172 10.3594C49.6172 10.0208 49.7292 9.74219 49.9531 9.52344C50.1823 9.30469 50.4922 9.19531 50.8828 9.19531C51.2682 9.19531 51.5755 9.30469 51.8047 9.52344C52.0339 9.74219 52.1484 10.0208 52.1484 10.3594C52.1484 10.7031 52.0312 10.9844 51.7969 11.2031C51.5677 11.4219 51.263 11.5312 50.8828 11.5312C50.5026 11.5312 50.1953 11.4219 49.9609 11.2031C49.7318 10.9844 49.6172 10.7031 49.6172 10.3594Z" fill="#0F1138"/>
<path d="M55.9609 12.5469L56.0312 13.5234C56.6354 12.7682 57.4453 12.3906 58.4609 12.3906C59.3568 12.3906 60.0234 12.6536 60.4609 13.1797C60.8984 13.7057 61.1224 14.4922 61.1328 15.5391V21H58.875V15.5938C58.875 15.1146 58.7708 14.7682 58.5625 14.5547C58.3542 14.3359 58.0078 14.2266 57.5234 14.2266C56.888 14.2266 56.4115 14.4974 56.0938 15.0391V21H53.8359V12.5469H55.9609Z" fill="#0F1138"/>
<path d="M62.5 16.7109C62.5 15.3932 62.7943 14.3438 63.3828 13.5625C63.9766 12.7812 64.7865 12.3906 65.8125 12.3906C66.6354 12.3906 67.3151 12.6979 67.8516 13.3125V9H70.1172V21H68.0781L67.9688 20.1016C67.4062 20.8047 66.6823 21.1562 65.7969 21.1562C64.8021 21.1562 64.0026 20.7656 63.3984 19.9844C62.7995 19.1979 62.5 18.1068 62.5 16.7109ZM64.7578 16.875C64.7578 17.6667 64.8958 18.2734 65.1719 18.6953C65.4479 19.1172 65.849 19.3281 66.375 19.3281C67.0729 19.3281 67.5651 19.0339 67.8516 18.4453V15.1094C67.5703 14.5208 67.0833 14.2266 66.3906 14.2266C65.3021 14.2266 64.7578 15.1094 64.7578 16.875Z" fill="#0F1138"/>
<path d="M75.9375 14.75L78.3047 9.625H80.8672L77.1328 16.875V21H74.75V16.875L71.0156 9.625H73.5859L75.9375 14.75Z" fill="#0F1138"/>
<path d="M80.8906 16.6953C80.8906 15.8568 81.0521 15.1094 81.375 14.4531C81.6979 13.7969 82.1615 13.2891 82.7656 12.9297C83.375 12.5703 84.0807 12.3906 84.8828 12.3906C86.0234 12.3906 86.9531 12.7396 87.6719 13.4375C88.3958 14.1354 88.7995 15.0833 88.8828 16.2812L88.8984 16.8594C88.8984 18.1562 88.5365 19.1979 87.8125 19.9844C87.0885 20.7656 86.1172 21.1562 84.8984 21.1562C83.6797 21.1562 82.7057 20.7656 81.9766 19.9844C81.2526 19.2031 80.8906 18.1406 80.8906 16.7969V16.6953ZM83.1484 16.8594C83.1484 17.6615 83.2995 18.276 83.6016 18.7031C83.9036 19.125 84.3359 19.3359 84.8984 19.3359C85.4453 19.3359 85.8724 19.1276 86.1797 18.7109C86.487 18.2891 86.6406 17.6172 86.6406 16.6953C86.6406 15.9089 86.487 15.2995 86.1797 14.8672C85.8724 14.4349 85.4401 14.2188 84.8828 14.2188C84.3307 14.2188 83.9036 14.4349 83.6016 14.8672C83.2995 15.2943 83.1484 15.9583 83.1484 16.8594Z" fill="#0F1138"/>
<path d="M95.3516 20.1406C94.7943 20.8177 94.0234 21.1562 93.0391 21.1562C92.1328 21.1562 91.4401 20.8958 90.9609 20.375C90.487 19.8542 90.2448 19.0911 90.2344 18.0859V12.5469H92.4922V18.0078C92.4922 18.888 92.8932 19.3281 93.6953 19.3281C94.4609 19.3281 94.987 19.0625 95.2734 18.5312V12.5469H97.5391V21H95.4141L95.3516 20.1406Z" fill="#0F1138"/>
<path d="M103.992 14.6641C103.685 14.6224 103.414 14.6016 103.18 14.6016C102.326 14.6016 101.766 14.8906 101.5 15.4688V21H99.2422V12.5469H101.375L101.438 13.5547C101.891 12.7786 102.518 12.3906 103.32 12.3906C103.57 12.3906 103.805 12.4245 104.023 12.4922L103.992 14.6641Z" fill="#0F1138"/>
<path d="M110.602 9.625H112.945V17.5C112.945 18.224 112.784 18.8646 112.461 19.4219C112.143 19.974 111.693 20.401 111.109 20.7031C110.526 21.0052 109.867 21.1562 109.133 21.1562C107.93 21.1562 106.992 20.8516 106.32 20.2422C105.648 19.6276 105.313 18.7604 105.313 17.6406H107.672C107.672 18.1979 107.789 18.6094 108.023 18.875C108.258 19.1406 108.628 19.2734 109.133 19.2734C109.581 19.2734 109.938 19.1198 110.203 18.8125C110.469 18.5052 110.602 18.0677 110.602 17.5V9.625Z" fill="#1A75E8"/>
<path d="M114.453 16.6953C114.453 15.8568 114.615 15.1094 114.938 14.4531C115.26 13.7969 115.724 13.2891 116.328 12.9297C116.938 12.5703 117.643 12.3906 118.445 12.3906C119.586 12.3906 120.516 12.7396 121.234 13.4375C121.958 14.1354 122.362 15.0833 122.445 16.2812L122.461 16.8594C122.461 18.1562 122.099 19.1979 121.375 19.9844C120.651 20.7656 119.68 21.1562 118.461 21.1562C117.242 21.1562 116.268 20.7656 115.539 19.9844C114.815 19.2031 114.453 18.1406 114.453 16.7969V16.6953ZM116.711 16.8594C116.711 17.6615 116.862 18.276 117.164 18.7031C117.466 19.125 117.898 19.3359 118.461 19.3359C119.008 19.3359 119.435 19.1276 119.742 18.7109C120.05 18.2891 120.203 17.6172 120.203 16.6953C120.203 15.9089 120.05 15.2995 119.742 14.8672C119.435 14.4349 119.003 14.2188 118.445 14.2188C117.893 14.2188 117.466 14.4349 117.164 14.8672C116.862 15.2943 116.711 15.9583 116.711 16.8594Z" fill="#1A75E8"/>
<path d="M131.469 16.8516C131.469 18.2057 131.18 19.263 130.602 20.0234C130.023 20.7786 129.216 21.1562 128.18 21.1562C127.263 21.1562 126.531 20.8047 125.984 20.1016L125.883 21H123.852V9H126.109V13.3047C126.63 12.6953 127.315 12.3906 128.164 12.3906C129.195 12.3906 130.003 12.7708 130.586 13.5312C131.175 14.2865 131.469 15.3516 131.469 16.7266V16.8516ZM129.211 16.6875C129.211 15.8333 129.076 15.2109 128.805 14.8203C128.534 14.4245 128.13 14.2266 127.594 14.2266C126.875 14.2266 126.38 14.5208 126.109 15.1094V18.4453C126.385 19.0391 126.885 19.3359 127.609 19.3359C128.339 19.3359 128.818 18.9766 129.047 18.2578C129.156 17.9141 129.211 17.3906 129.211 16.6875Z" fill="#1A75E8"/>
</svg>
